<svg width="124" height="42" viewBox="0 0 124 42" fill="none" xmlns="http://www.w3.org/2000/svg">
<rect width="124" height="42" rx="5" fill="black"/>
<path d="M23.8785 8V29.3186H19.6975C15.3179 29.3186 12.7768 27.2197 12.7768 22.698V8H8V22.698C8 29.9347 12.6851 34.2475 19.6924 34.2475H23.8734H27.2141H28.645V8H23.8785V8Z" fill="white"/>
<path d="M99.1705 17.111C101.363 14.8658 102.622 11.6756 102.622 8.02588H97.7294C97.7294 12.4797 95.1239 15.6855 90.6336 15.6855H88.9367V8.02588H84.0391V15.6855V20.5413V34.2316H88.9367V20.651H93.2234C97.7137 20.651 100.319 23.2355 100.319 27.6893V34.2316H105.217V27.6893C105.212 22.7813 102.935 18.9959 99.1705 17.111Z" fill="white"/>
<path d="M53.6857 12.9289V8H40.3074H37.9272H35.5469V34.2371H37.9272H40.3074H53.6857V29.3082H40.3074V23.5856H52.1631V18.6567H40.3074V12.9289H53.6857Z" fill="white"/>
<path d="M78.4266 12.9289V8H64.6632H62.2144H59.7656V34.2371H62.2144H64.6632H78.4266V29.3082H64.6632V23.5856H76.8602V18.6567H64.6632V12.9289H78.4266Z" fill="white"/>
<path d="M117 28.9688H111.731V34.237H117V28.9688Z" fill="white"/>
</svg>
